<?xml version="1.0" encoding="UTF-8" standalone="no"?>
<!-- Created with Inkscape (http://www.inkscape.org/) -->

<svg
   width="101.3041mm"
   height="48.533264mm"
   viewBox="0 0 101.3041 48.533264"
   version="1.1"
   id="svg5"
   inkscape:version="1.1.1 (1:1.1+202109281943+c3084ef5ed)"
   sodipodi:docname="floatcsep_logo.svg"
   xmlns:inkscape="http://www.inkscape.org/namespaces/inkscape"
   xmlns:sodipodi="http://sodipodi.sourceforge.net/DTD/sodipodi-0.dtd"
   xmlns:xlink="http://www.w3.org/1999/xlink"
   xmlns="http://www.w3.org/2000/svg"
   xmlns:svg="http://www.w3.org/2000/svg">
  <sodipodi:namedview
     id="namedview7"
     pagecolor="#ffffff"
     bordercolor="#666666"
     borderopacity="1.0"
     inkscape:pageshadow="2"
     inkscape:pageopacity="0.0"
     inkscape:pagecheckerboard="0"
     inkscape:document-units="mm"
     showgrid="false"
     inkscape:zoom="2.5620931"
     inkscape:cx="249.60061"
     inkscape:cy="111.62748"
     inkscape:window-width="1920"
     inkscape:window-height="1011"
     inkscape:window-x="0"
     inkscape:window-y="0"
     inkscape:window-maximized="1"
     inkscape:current-layer="layer1"
     fit-margin-top="0"
     fit-margin-left="0"
     fit-margin-right="0"
     fit-margin-bottom="0" />
  <defs
     id="defs2">
    <linearGradient
       inkscape:collect="always"
       id="linearGradient4792">
      <stop
         style="stop-color:#a0062c;stop-opacity:1;"
         offset="0"
         id="stop4788" />
      <stop
         style="stop-color:#00ffff;stop-opacity:1"
         offset="1"
         id="stop4790" />
    </linearGradient>
    <linearGradient
       id="linearGradient4768"
       inkscape:swatch="solid">
      <stop
         style="stop-color:#a0062c;stop-opacity:1;"
         offset="0"
         id="stop4766" />
    </linearGradient>
    <clipPath
       clipPathUnits="userSpaceOnUse"
       id="clipPath30293">
      <rect
         style="fill:#a02c2c;stroke-width:0.344334"
         id="rect30295"
         width="54.640553"
         height="52.391438"
         x="-103.60113"
         y="31.609118"
         transform="scale(-1,1)" />
    </clipPath>
    <linearGradient
       inkscape:collect="always"
       xlink:href="#linearGradient4792"
       id="linearGradient4817"
       gradientUnits="userSpaceOnUse"
       x1="73.575798"
       y1="21.952711"
       x2="80.623436"
       y2="46.617847" />
  </defs>
  <g
     inkscape:label="Layer 1"
     inkscape:groupmode="layer"
     id="layer1"
     transform="translate(-0.14471016,-0.5102486)">
    <g
       id="g35130"
       inkscape:export-filename="/home/pciturri/PycharmProjects/floatcsep/docs/_static/floatCSEP_Logo_CMYK.png"
       inkscape:export-xdpi="150.03999"
       inkscape:export-ydpi="150.03999"
       transform="translate(1.5537814,-28.172035)">
      <g
         id="g31265"
         transform="translate(10.755472,26.839997)"
         inkscape:export-filename="/home/pciturri/PycharmProjects/floatcsep/docs/_static/floatCSEP2_Logo_CMYK.png"
         inkscape:export-xdpi="150.03999"
         inkscape:export-ydpi="150.03999">
        <g
           id="g32409"
           transform="translate(-13.691696,-32.070264)">
          <g
             id="g35240"
             transform="translate(0.09544933,-1.1136899)">
            <path
               style="fill:#c8d3e7;stroke-width:0.0494937"
               d="m 77.611475,83.538131 c 0.07523,-0.01138 0.186594,-0.01107 0.247468,6.73e-4 0.06087,0.01175 -6.83e-4,0.02106 -0.136788,0.02069 -0.136108,-3.96e-4 -0.185914,-0.01 -0.11068,-0.02136 z m 1.286155,5e-5 c 0.07486,-0.01134 0.197356,-0.01134 0.272215,0 0.07486,0.01134 0.01361,0.02062 -0.136108,0.02062 -0.149718,0 -0.210966,-0.0093 -0.136107,-0.02062 z m -2.248869,-0.04785 c 0.03573,-0.0143 0.07842,-0.01254 0.09486,0.0039 0.01645,0.01645 -0.01279,0.02814 -0.06496,0.026 -0.05766,-0.0024 -0.06938,-0.0141 -0.0299,-0.0299 z m 3.362477,0.001 c 0.03403,-0.01373 0.08971,-0.01373 0.123734,0 0.03403,0.01373 0.0062,0.02496 -0.06187,0.02496 -0.06805,0 -0.09589,-0.01123 -0.06187,-0.02496 z m 0.646511,-0.05052 c 0.03573,-0.0143 0.07842,-0.01254 0.09486,0.0039 0.01645,0.01645 -0.01279,0.02814 -0.06496,0.02599 -0.05766,-0.0024 -0.06939,-0.0141 -0.0299,-0.0299 z M 75.5599,83.391339 c 0.03573,-0.0143 0.07842,-0.01254 0.09486,0.0039 0.01645,0.01645 -0.01279,0.02814 -0.06496,0.02599 -0.05766,-0.0024 -0.06939,-0.0141 -0.0299,-0.0299 z M 62.496534,77.646778 c -0.06156,-0.0785 -0.05981,-0.08025 0.01869,-0.01869 0.04764,0.03736 0.08661,0.07634 0.08661,0.08661 0,0.04073 -0.04064,0.01452 -0.105301,-0.06793 z m -0.442876,-0.395949 -0.119988,-0.136108 0.136107,0.119988 c 0.127214,0.112148 0.158805,0.152228 0.119989,0.152228 -0.0089,0 -0.07011,-0.06125 -0.136108,-0.136108 z m 32.620083,0.01843 c 0,-0.01028 0.03898,-0.04925 0.08661,-0.08661 0.0785,-0.06156 0.08025,-0.05981 0.01869,0.01869 -0.06466,0.08244 -0.105301,0.108663 -0.105301,0.06793 z m -33.460394,-0.810332 -0.170563,-0.185601 0.185601,0.170563 c 0.102081,0.09381 0.185601,0.177331 0.185601,0.185602 0,0.03779 -0.04188,0.0022 -0.200639,-0.170564 z m 34.969952,-0.705285 c 0.04927,-0.05444 0.100718,-0.09899 0.114329,-0.09899 0.01361,0 -0.01557,0.04454 -0.06484,0.09899 -0.04927,0.05444 -0.100719,0.09899 -0.11433,0.09899 -0.01361,0 0.01556,-0.04454 0.06484,-0.09899 z m -35.762933,-0.136108 -0.119988,-0.136107 0.136108,0.119988 c 0.127213,0.112147 0.158805,0.152227 0.119988,0.152227 -0.0089,0 -0.07011,-0.06125 -0.136108,-0.136108 z m 36.134135,-0.278528 c 0,-0.01028 0.03898,-0.04925 0.08661,-0.08661 0.0785,-0.06156 0.08025,-0.05981 0.01869,0.01869 -0.06466,0.08244 -0.105301,0.108662 -0.105301,0.06793 z M 60.02185,75.172094 c -0.06156,-0.0785 -0.05981,-0.08025 0.01869,-0.01869 0.08244,0.06466 0.108663,0.105301 0.06793,0.105301 -0.01028,0 -0.04925,-0.03898 -0.08661,-0.08661 z m -0.0803,-8.212948 c 0.04764,-0.01245 0.12559,-0.01245 0.173228,0 0.04764,0.01245 0.0087,0.02263 -0.08661,0.02263 -0.09528,0 -0.134252,-0.01019 -0.08661,-0.02263 z m 0.742405,0 c 0.04764,-0.01245 0.125591,-0.01245 0.173228,0 0.04764,0.01245 0.0087,0.02263 -0.08661,0.02263 -0.09527,0 -0.134251,-0.01019 -0.08661,-0.02263 z m 11.631958,-1.98e-4 c 0.04816,-0.01255 0.114972,-0.01172 0.148481,0.0018 0.03351,0.01356 -0.0059,0.02383 -0.08756,0.02282 -0.08167,-0.001 -0.109081,-0.0121 -0.06092,-0.02465 z m 0.593924,0 c 0.04816,-0.01255 0.114972,-0.01172 0.148481,0.0018 0.03351,0.01356 -0.0059,0.02383 -0.08756,0.02282 -0.08166,-0.001 -0.109081,-0.0121 -0.06092,-0.02465 z m 6.13355,-0.435875 c 0.001,-0.08166 0.0121,-0.109081 0.02465,-0.06092 0.01255,0.04816 0.01172,0.114972 -0.0018,0.148481 -0.01356,0.03351 -0.02382,-0.0059 -0.02282,-0.08756 z m 15.222033,0.03714 c 0.905115,-0.0076 2.386214,-0.0076 3.29133,0 0.905115,0.0076 0.164566,0.01373 -1.645665,0.01373 -1.810232,0 -2.550781,-0.0062 -1.645665,-0.01373 z M 60.563313,66.316036 c 0.03573,-0.0143 0.07842,-0.01254 0.09486,0.0039 0.01645,0.01645 -0.01279,0.02814 -0.06496,0.02599 -0.05766,-0.0024 -0.06938,-0.0141 -0.0299,-0.0299 z m 0.989874,0 c 0.03573,-0.0143 0.07842,-0.01254 0.09486,0.0039 0.01645,0.01645 -0.01279,0.02814 -0.06496,0.02599 -0.05766,-0.0024 -0.06938,-0.0141 -0.0299,-0.0299 z m 6.98789,0.01512 c 0,-0.01028 0.03898,-0.04925 0.08661,-0.08661 0.0785,-0.06156 0.08025,-0.05981 0.01869,0.01869 -0.06466,0.08244 -0.1053,0.108663 -0.1053,0.06793 z m 18.053707,-0.01718 c 0.08896,-0.01102 0.222591,-0.01079 0.296962,5.05e-4 0.07437,0.01129 0.0016,0.0203 -0.161741,0.02003 -0.163329,-2.97e-4 -0.224178,-0.0095 -0.135221,-0.02053 z m 4.676375,-0.335333 c 5.49e-4,-0.108886 0.01069,-0.147603 0.02252,-0.08604 0.01184,0.06157 0.01139,0.150654 -10e-4,0.197975 -0.01239,0.04732 -0.02207,-0.0031 -0.02152,-0.111938 z m 2.858152,-0.142421 c 0,-0.01028 0.03898,-0.04925 0.08661,-0.08661 0.0785,-0.06156 0.08025,-0.05981 0.01869,0.01869 -0.06466,0.08244 -0.105301,0.108662 -0.105301,0.06793 z m -29.69621,-0.253529 c 0.06393,-0.06805 0.127378,-0.123734 0.140989,-0.123734 0.01361,0 -0.02756,0.05568 -0.09149,0.123734 -0.06393,0.06805 -0.127379,0.123734 -0.14099,0.123734 -0.01361,0 0.02756,-0.05568 0.0915,-0.123734 z m 26.88855,-1.113608 c 0,-0.122496 0.0097,-0.172609 0.02145,-0.11136 0.0118,0.06125 0.0118,0.161473 0,0.222721 -0.0118,0.06125 -0.02145,0.01114 -0.02145,-0.111361 z M 54.637259,64.291733 c 0.0024,-0.05766 0.0141,-0.06938 0.0299,-0.0299 0.0143,0.03573 0.01254,0.07842 -0.0039,0.09486 -0.01645,0.01645 -0.02814,-0.01279 -0.026,-0.06496 z m 26.532521,-0.11961 c 0,-0.06805 0.01123,-0.09589 0.02496,-0.06187 0.01373,0.03403 0.01373,0.08971 0,0.123734 -0.01373,0.03403 -0.02496,0.0062 -0.02496,-0.06187 z m 15.841647,-0.247468 c 0,-0.09528 0.01019,-0.134252 0.02264,-0.08661 0.01245,0.04764 0.01245,0.12559 0,0.173228 -0.01245,0.04764 -0.02264,0.0087 -0.02264,-0.08661 z m -22.02369,-0.07424 c 5.49e-4,-0.108886 0.01069,-0.147602 0.02252,-0.08604 0.01184,0.06157 0.01139,0.150655 -9.99e-4,0.197975 -0.01239,0.04732 -0.02208,-0.0031 -0.02152,-0.111938 z m 8.460587,-0.643418 c 0.001,-0.08166 0.0121,-0.109081 0.02465,-0.06092 0.01255,0.04816 0.01172,0.114973 -0.0018,0.148481 -0.01356,0.03351 -0.02383,-0.0059 -0.02282,-0.08756 z m 7.921822,-0.247469 c 5.49e-4,-0.108886 0.01068,-0.147602 0.02252,-0.08604 0.01184,0.06157 0.01139,0.150655 -0.001,0.197975 -0.01239,0.04732 -0.02207,-0.0031 -0.02153,-0.111938 z M 68.209957,62.662566 c 2.97e-4,-0.163329 0.0095,-0.224179 0.02053,-0.135221 0.01102,0.08896 0.01079,0.22259 -5.04e-4,0.296962 -0.01129,0.07437 -0.02031,0.0016 -0.02003,-0.161741 z m 23.036347,-0.107018 c 0.03403,-0.01373 0.08971,-0.01373 0.123734,0 0.03403,0.01373 0.0062,0.02496 -0.06187,0.02496 -0.06805,0 -0.09589,-0.01123 -0.06187,-0.02496 z m -4.175202,-1.056084 c 0,-0.36749 0.0078,-0.517827 0.01731,-0.334082 0.0095,0.183745 0.0095,0.484419 0,0.668165 -0.0095,0.183745 -0.01731,0.03341 -0.01731,-0.334083 z m 15.575028,-0.424801 c 0.002,-0.05766 0.0141,-0.06938 0.0299,-0.0299 0.0143,0.03573 0.0125,0.07842 -0.004,0.09486 -0.0164,0.01645 -0.0281,-0.01279 -0.026,-0.06496 z m 0.0571,-0.862034 c 0,-0.09528 0.0102,-0.134252 0.0226,-0.08661 0.0124,0.04764 0.0124,0.12559 0,0.173228 -0.0125,0.04764 -0.0226,0.0087 -0.0226,-0.08661 z m -46.920011,-0.04949 c 0,-0.09527 0.01018,-0.134252 0.02264,-0.08661 0.01245,0.04764 0.01245,0.12559 0,0.173228 -0.01245,0.04764 -0.02264,0.0087 -0.02264,-0.08661 z m -1.678931,-0.816646 c 2.77e-4,-0.163329 0.0095,-0.224178 0.02053,-0.135221 0.01102,0.08896 0.01079,0.22259 -5.05e-4,0.296962 -0.01129,0.07437 -0.02031,0.0016 -0.02003,-0.161741 z m 30.364505,0.08993 c 0.03573,-0.0143 0.07842,-0.01254 0.09486,0.0039 0.01645,0.01645 -0.01279,0.02814 -0.06496,0.02599 -0.05766,-0.0024 -0.06938,-0.0141 -0.0299,-0.0299 z m 14.1521,-0.09796 c 0.03403,-0.01373 0.08971,-0.01373 0.123734,0 0.03403,0.01373 0.0062,0.02496 -0.06187,0.02496 -0.06805,0 -0.09589,-0.01123 -0.06187,-0.02496 z M 55.783189,59.173261 c 0,-0.09527 0.01018,-0.134251 0.02264,-0.08661 0.01245,0.04764 0.01245,0.125591 0,0.173228 -0.01245,0.04764 -0.02264,0.0087 -0.02264,-0.08661 z m 28.982536,-0.0833 c 0.03573,-0.0143 0.07842,-0.01254 0.09486,0.0039 0.01645,0.01645 -0.01279,0.02814 -0.06496,0.026 -0.05766,-0.0024 -0.06938,-0.0141 -0.0299,-0.0299 z m 17.944505,-0.584855 c 1e-4,-0.299437 0.008,-0.415553 0.0181,-0.258035 0.01,0.157517 0.01,0.402511 -2e-4,0.54443 -0.01,0.141919 -0.018,0.01304 -0.0179,-0.286395 z m -16.524655,0.07424 c 0.04927,-0.05444 0.100718,-0.09899 0.114329,-0.09899 0.01361,0 -0.01556,0.04454 -0.06484,0.09899 -0.04927,0.05444 -0.100718,0.09899 -0.114329,0.09899 -0.01361,0 0.01556,-0.04454 0.06484,-0.09899 z M 102.65371,57.3915 c 0,-0.09528 0.0102,-0.134252 0.0226,-0.08661 0.0125,0.04764 0.0125,0.12559 0,0.173228 -0.0125,0.04764 -0.0226,0.0087 -0.0226,-0.08661 z M 65.529776,57.045033 c 0,-0.06805 0.01123,-0.09589 0.02497,-0.06187 0.01373,0.03403 0.01373,0.08971 0,0.123734 -0.01373,0.03403 -0.02497,0.0062 -0.02497,-0.06187 z m 37.072604,-0.222722 c 0.001,-0.08166 0.0121,-0.109081 0.0247,-0.06092 0.0125,0.04816 0.0117,0.114972 -0.002,0.148481 -0.0136,0.03351 -0.0238,-0.0059 -0.0228,-0.08756 z M 86.99294,56.664768 c 0.03573,-0.0143 0.07842,-0.01254 0.09486,0.0039 0.01645,0.01645 -0.01279,0.02814 -0.06496,0.026 -0.05766,-0.0024 -0.06938,-0.0141 -0.0299,-0.0299 z m 15.55811,-0.312647 c 0,-0.06805 0.0112,-0.09589 0.025,-0.06187 0.0137,0.03403 0.0137,0.08971 0,0.123734 -0.0137,0.03403 -0.025,0.0062 -0.025,-0.06187 z M 76.328225,56.005666 c 0,-0.204162 0.0087,-0.287682 0.01941,-0.185602 0.01068,0.102081 0.01068,0.269122 0,0.371203 -0.01068,0.102081 -0.01941,0.01856 -0.01941,-0.185601 z m 25.234785,0.222721 c 10e-4,-0.08166 0.0121,-0.109081 0.0246,-0.06092 0.0126,0.04816 0.0117,0.114972 -0.002,0.148481 -0.0136,0.03351 -0.0238,-0.0059 -0.0228,-0.08756 z M 90.001007,56.012815 c -0.01439,-0.02329 0.02884,-0.03183 0.09607,-0.01898 0.06723,0.01285 0.122237,0.03191 0.122237,0.04234 0,0.0383 -0.192958,0.01764 -0.218303,-0.02337 z m 12.500553,-0.05664 c 0,-0.06805 0.0112,-0.09589 0.025,-0.06187 0.0137,0.03403 0.0137,0.08971 0,0.123734 -0.0137,0.03403 -0.025,0.0062 -0.025,-0.06187 z M 54.393698,55.708703 c 0,-0.06805 0.01123,-0.09589 0.02496,-0.06187 0.01373,0.03403 0.01373,0.08971 0,0.123735 -0.01373,0.03403 -0.02496,0.0062 -0.02496,-0.06187 z m 11.092926,-0.371202 c 3.96e-4,-0.136108 0.01,-0.185914 0.02136,-0.11068 0.01138,0.07523 0.01107,0.186594 -6.73e-4,0.247468 -0.01175,0.06087 -0.02106,-6.83e-4 -0.02069,-0.136788 z m 24.692841,0.04949 c 0.001,-0.08167 0.0121,-0.109082 0.02465,-0.06093 0.01255,0.04816 0.01172,0.114973 -0.0018,0.148481 -0.01356,0.03351 -0.02383,-0.0059 -0.02282,-0.08756 z m 12.219195,-0.103112 c 0.002,-0.05766 0.0141,-0.06939 0.0299,-0.0299 0.0143,0.03573 0.0125,0.07842 -0.004,0.09486 -0.0165,0.01645 -0.0281,-0.01279 -0.026,-0.06496 z m -21.22888,-0.1691 c 0,-0.06805 0.01123,-0.09589 0.02496,-0.06187 0.01373,0.03403 0.01373,0.08971 0,0.123734 -0.01373,0.03403 -0.02496,0.0062 -0.02496,-0.06187 z m 13.557363,-0.325833 c 0.0024,-0.05766 0.0141,-0.06939 0.0299,-0.0299 0.0143,0.03573 0.01254,0.07842 -0.0039,0.09486 -0.01645,0.01645 -0.02814,-0.01279 -0.026,-0.06496 z m -4.597172,-0.342331 c 0.001,-0.08167 0.0121,-0.109082 0.02465,-0.06093 0.01255,0.04816 0.01172,0.114973 -0.0018,0.148481 -0.01356,0.03351 -0.02382,-0.0059 -0.02282,-0.08756 z m -1.102256,-0.507307 -0.119988,-0.136107 0.136108,0.119988 c 0.07486,0.06599 0.136108,0.127242 0.136108,0.136107 0,0.03882 -0.04008,0.0072 -0.152228,-0.119988 z M 65.43713,53.506229 c 3.96e-4,-0.136108 0.01,-0.185914 0.02136,-0.110681 0.01138,0.07523 0.01107,0.186594 -6.73e-4,0.247469 -0.01175,0.06087 -0.02106,-6.83e-4 -0.02068,-0.136788 z m 9.185356,-0.01237 c -0.06156,-0.0785 -0.05981,-0.08025 0.01869,-0.01869 0.04764,0.03736 0.08661,0.07634 0.08661,0.08661 0,0.04074 -0.04064,0.01452 -0.105301,-0.06793 z m 1.656245,-0.259842 c 0,-0.204161 0.0087,-0.287682 0.01942,-0.185601 0.01068,0.102081 0.01068,0.269122 0,0.371203 -0.01068,0.10208 -0.01942,0.01856 -0.01942,-0.185602 z m 13.799912,0.247469 c 0,-0.06805 0.01123,-0.09589 0.02496,-0.06187 0.01373,0.03403 0.01373,0.08971 0,0.123734 -0.01373,0.03403 -0.02496,0.0062 -0.02496,-0.06187 z m -19.112376,-0.22272 c 0.06393,-0.06805 0.127379,-0.123734 0.140989,-0.123734 0.01361,0 -0.02756,0.05568 -0.0915,0.123734 -0.06393,0.06805 -0.127379,0.123734 -0.140989,0.123734 -0.01361,0 0.02756,-0.05568 0.0915,-0.123734 z m 3.458245,0.03712 c -0.06156,-0.0785 -0.05981,-0.08025 0.01869,-0.01869 0.08244,0.06466 0.108663,0.1053 0.06793,0.1053 -0.01028,0 -0.04925,-0.03898 -0.08661,-0.08661 z m 27.528708,-0.09075 c 0.002,-0.05766 0.0141,-0.06939 0.0299,-0.0299 0.0143,0.03573 0.0125,0.07842 -0.004,0.09486 -0.0164,0.01645 -0.0281,-0.01279 -0.026,-0.06496 z m -0.0495,-0.197968 c 0.002,-0.05766 0.0141,-0.06939 0.0299,-0.0299 0.0143,0.03573 0.0125,0.07842 -0.004,0.09486 -0.0164,0.01645 -0.0281,-0.01279 -0.026,-0.06496 z m -17.806304,-0.05764 c 0.375923,-0.0084 0.977271,-0.0084 1.336329,4.8e-5 0.359058,0.0084 0.05148,0.01533 -0.683497,0.01531 -0.734981,-2.7e-5 -1.028756,-0.0069 -0.652832,-0.01535 z m 13.308338,-0.04929 c 0.236812,-0.0091 0.63771,-0.0091 0.890886,-9.9e-5 0.253176,0.009 0.05942,0.01641 -0.430566,0.01646 -0.489987,4.9e-5 -0.697131,-0.0073 -0.46032,-0.01637 z M 79.05362,52.763829 c 0.0048,-0.09836 0.0396,-0.09899 5.52341,-0.09931 l 5.518546,-3.46e-4 -5.502758,0.01291 c -5.188493,0.01218 -5.503938,0.01785 -5.52341,0.09931 -0.01563,0.06539 -0.01947,0.06233 -0.01579,-0.01259 z m 21.35211,-0.10805 c 0.0357,-0.0143 0.0784,-0.01254 0.0949,0.0039 0.0164,0.01645 -0.0128,0.02814 -0.065,0.026 -0.0577,-0.0024 -0.0694,-0.0141 -0.0299,-0.0299 z M 72.587762,52.60509 c 0.06157,-0.01184 0.150655,-0.01139 0.197975,0.001 0.04732,0.01239 -0.0031,0.02207 -0.111938,0.02152 -0.108886,-5.5e-4 -0.147602,-0.01068 -0.08604,-0.02252 z m 26.825,9.9e-5 c 0.06125,-0.0118 0.161473,-0.0118 0.222721,0 0.06125,0.0118 0.01114,0.02145 -0.111361,0.02145 -0.122496,0 -0.172609,-0.0097 -0.11136,-0.02145 z M 60.167364,52.309347 c 0.03573,-0.0143 0.07842,-0.01254 0.09486,0.0039 0.01645,0.01645 -0.01279,0.02814 -0.06496,0.026 -0.05766,-0.0024 -0.06939,-0.0141 -0.0299,-0.0299 z m 0.94038,0 c 0.03573,-0.0143 0.07842,-0.01254 0.09486,0.0039 0.01645,0.01645 -0.01279,0.02814 -0.06496,0.026 -0.05766,-0.0024 -0.06939,-0.0141 -0.0299,-0.0299 z m 11.037091,0 c 0.03573,-0.0143 0.07842,-0.01254 0.09486,0.0039 0.01645,0.01645 -0.01279,0.02814 -0.06496,0.026 -0.05766,-0.0024 -0.06939,-0.0141 -0.0299,-0.0299 z m 0.742406,0 c 0.03573,-0.0143 0.07842,-0.01254 0.09486,0.0039 0.01645,0.01645 -0.01279,0.02814 -0.06496,0.026 -0.05766,-0.0024 -0.06938,-0.0141 -0.0299,-0.0299 z M 60.12715,43.217609 c 0,-0.01028 0.03898,-0.04925 0.08661,-0.08661 0.0785,-0.06156 0.08025,-0.05981 0.01869,0.01869 -0.06466,0.08244 -0.105301,0.108663 -0.105301,0.06793 z m 36.051446,-0.488624 -0.09428,-0.111361 0.111361,0.09428 c 0.104652,0.08861 0.133893,0.128437 0.09428,0.128437 -0.0094,0 -0.0595,-0.05011 -0.111361,-0.111361 z M 60.696328,42.592877 c 0.04927,-0.05444 0.100718,-0.09899 0.114329,-0.09899 0.01361,0 -0.01557,0.04454 -0.06484,0.09899 -0.04927,0.05444 -0.100718,0.09899 -0.114329,0.09899 -0.01361,0 0.01556,-0.04454 0.06484,-0.09899 z m 1.01462,-1.01462 c 0.06393,-0.06805 0.127379,-0.123734 0.140989,-0.123734 0.01361,0 -0.02756,0.05568 -0.0915,0.123734 -0.06393,0.06805 -0.127378,0.123734 -0.140989,0.123734 -0.01361,0 0.02756,-0.05568 0.0915,-0.123734 z m 33.230306,-0.08661 -0.09428,-0.111361 0.111361,0.09428 c 0.06125,0.05186 0.111361,0.101969 0.111361,0.111361 0,0.03961 -0.03983,0.01037 -0.128437,-0.09428 z m -0.521294,-0.47019 c -0.06156,-0.0785 -0.05981,-0.08025 0.01869,-0.01869 0.08244,0.06466 0.108663,0.105301 0.06793,0.105301 -0.01028,0 -0.04925,-0.03898 -0.08661,-0.08661 z M 81.20218,35.135015 c 0.03573,-0.0143 0.07842,-0.01254 0.09486,0.0039 0.01645,0.01645 -0.01279,0.02814 -0.06496,0.026 -0.05766,-0.0024 -0.06939,-0.0141 -0.0299,-0.0299 z m -4.800888,-0.04949 c 0.03573,-0.0143 0.07842,-0.01254 0.09486,0.0039 0.01645,0.01645 -0.01279,0.02814 -0.06496,0.02599 -0.05766,-0.0024 -0.06938,-0.0141 -0.0299,-0.0299 z m 4.305951,0 c 0.03573,-0.0143 0.07842,-0.01254 0.09486,0.0039 0.01645,0.01645 -0.01279,0.02814 -0.06496,0.02599 -0.05766,-0.0024 -0.06938,-0.0141 -0.0299,-0.0299 z m -3.616133,-0.04846 c 0.03403,-0.01373 0.08971,-0.01373 0.123735,0 0.03403,0.01373 0.0062,0.02496 -0.06187,0.02496 -0.06805,0 -0.09589,-0.01123 -0.06187,-0.02496 z m 2.920128,0 c 0.03403,-0.01373 0.08971,-0.01373 0.123734,0 0.03403,0.01373 0.0062,0.02496 -0.06187,0.02496 -0.06805,0 -0.09589,-0.01123 -0.06187,-0.02496 z"
               id="path31279"
               sodipodi:nodetypes="sscsssssssscsssssssscsssscsssssssscssssssssscssssssssscsssssssssssssssssssssssccsccccscccsccccsscsscsssscssssssssscssssssssssssssssssscsscsscssssssssssssssscscccssssssssssssssssssscscccsscsssssssssssssscsssssssssssssscssccssssssscsssssssscccccsscsscsssscsscccccsssssscssssssssscssscsccccssccssssscssccscccscsssscssssssssscssssssssssssssssscsccccscccscsssssssscccssccsccsssssscsscsscssscssscssscssssssccssscssssssssssccssscssssssscssscsssscssssssssssss" />
            <path
               style="fill:#91a6ce;stroke-width:0.0494937"
               d="m 78.156718,83.537206 c 0.130124,-0.01023 0.330573,-0.0101 0.445443,2.97e-4 0.11487,0.01038 0.0084,0.01875 -0.236588,0.0186 -0.244994,-1.48e-4 -0.338979,-0.0086 -0.208855,-0.01887 z m -1.36257,-0.04583 c 0.03403,-0.01373 0.08971,-0.01373 0.123735,0 0.03403,0.01373 0.0062,0.02496 -0.06187,0.02496 -0.06805,0 -0.09589,-0.01123 -0.06187,-0.02496 z m 3.071702,-0.001 c 0.03573,-0.0143 0.07842,-0.01254 0.09486,0.0039 0.01645,0.01645 -0.01279,0.02814 -0.06496,0.026 -0.05766,-0.0024 -0.06939,-0.0141 -0.0299,-0.0299 z m -3.712026,-0.04949 c 0.03573,-0.0143 0.07842,-0.01254 0.09486,0.0039 0.01645,0.01645 -0.01279,0.02814 -0.06496,0.026 -0.05766,-0.0024 -0.06938,-0.0141 -0.0299,-0.0299 z m 18.742639,-6.40037 c 0.04927,-0.05444 0.100719,-0.09899 0.114329,-0.09899 0.01361,0 -0.01556,0.04454 -0.06483,0.09899 -0.04927,0.05444 -0.100719,0.09899 -0.11433,0.09899 -0.01361,0 0.01557,-0.04454 0.06484,-0.09899 z m 1.064114,-1.058054 c 0,-0.01028 0.03898,-0.04925 0.08661,-0.08661 0.0785,-0.06156 0.08025,-0.05981 0.01869,0.01869 -0.06466,0.08244 -0.105301,0.108662 -0.105301,0.06793 z M 75.767154,65.888961 c 0,-0.0085 0.07238,-0.0809 0.160855,-0.160854 l 0.160854,-0.145368 -0.145367,0.160855 c -0.135503,0.149939 -0.176342,0.183604 -0.176342,0.145367 z m -20.542543,-0.813532 -0.170563,-0.185601 0.185601,0.170563 c 0.102081,0.09381 0.185601,0.177331 0.185601,0.185602 0,0.03779 -0.04188,0.0022 -0.200639,-0.170564 z m 2.520529,0.04949 c -0.06156,-0.0785 -0.05981,-0.08025 0.01869,-0.01869 0.08244,0.06466 0.108662,0.105301 0.06793,0.105301 -0.01028,0 -0.04925,-0.03898 -0.08661,-0.08661 z m -0.346455,-0.346498 c -0.06156,-0.0785 -0.05981,-0.08025 0.01869,-0.01869 0.08244,0.06466 0.108663,0.105301 0.06793,0.105301 -0.01028,0 -0.04925,-0.03898 -0.08661,-0.08661 z m 45.197955,-3.258334 c 0.002,-0.05766 0.0141,-0.06938 0.0299,-0.0299 0.0143,0.03573 0.0125,0.07842 -0.004,0.09486 -0.0165,0.01645 -0.0282,-0.01279 -0.026,-0.06496 z m 0.0534,-0.61455 c 0,-0.06805 0.0112,-0.09589 0.025,-0.06187 0.0137,0.03403 0.0137,0.08971 0,0.123734 -0.0137,0.03403 -0.025,0.0062 -0.025,-0.06187 z m -16.641439,-0.878526 -0.119988,-0.136107 0.136107,0.119988 c 0.127213,0.112147 0.158805,0.152227 0.119988,0.152227 -0.0089,0 -0.07011,-0.06125 -0.136107,-0.136108 z m 16.697949,-0.210348 c 0,-0.149718 0.009,-0.210967 0.0206,-0.136107 0.0113,0.07486 0.0113,0.197356 0,0.272215 -0.0113,0.07486 -0.0206,0.01361 -0.0206,-0.136108 z m -26.744085,0.01237 -0.170564,-0.185602 0.185602,0.170564 c 0.10208,0.09381 0.185601,0.17733 0.185601,0.185601 0,0.03779 -0.04188,0.0022 -0.200639,-0.170563 z M 57.897866,53.865064 c 0.2051,-0.218524 0.249537,-0.257817 0.249537,-0.220653 0,0.0079 -0.105793,0.113736 -0.235095,0.235095 l -0.235095,0.220653 z M 96.548188,43.149681 c -0.06156,-0.0785 -0.05981,-0.08025 0.01869,-0.01869 0.08244,0.06466 0.108662,0.1053 0.06793,0.1053 -0.01028,0 -0.04925,-0.03898 -0.08661,-0.08661 z m -0.615471,-0.668164 -0.145368,-0.160855 0.160855,0.145368 c 0.08847,0.07995 0.160854,0.152336 0.160854,0.160854 0,0.03824 -0.04084,0.0046 -0.176341,-0.145367 z M 61.191265,42.097941 c 0.216494,-0.217773 0.404763,-0.39595 0.418374,-0.39595 0.01361,0 -0.152386,0.178177 -0.368881,0.39595 -0.216495,0.217772 -0.404763,0.395949 -0.418374,0.395949 -0.01361,0 0.152386,-0.178177 0.368881,-0.395949 z m 33.999047,-0.35883 -0.145368,-0.160854 0.160855,0.145367 c 0.08847,0.07995 0.160854,0.152337 0.160854,0.160855 0,0.03824 -0.04084,0.0046 -0.176341,-0.145368 z M 76.549773,35.085522 c 0.03573,-0.0143 0.07842,-0.01254 0.09486,0.0039 0.01645,0.01645 -0.01279,0.02814 -0.06496,0.02599 -0.05766,-0.0024 -0.06939,-0.0141 -0.0299,-0.0299 z m 4.008989,0 c 0.03573,-0.0143 0.07842,-0.01254 0.09486,0.0039 0.01645,0.01645 -0.01279,0.02814 -0.06496,0.02599 -0.05766,-0.0024 -0.06938,-0.0141 -0.0299,-0.0299 z m -3.243988,-0.04998 c 0.04816,-0.01255 0.114972,-0.01172 0.148481,0.0018 0.03351,0.01356 -0.0059,0.02382 -0.08756,0.02282 -0.08166,-10e-4 -0.109081,-0.0121 -0.06092,-0.02465 z m 2.474684,0 c 0.04816,-0.01255 0.114972,-0.01172 0.148481,0.0018 0.03351,0.01356 -0.0059,0.02382 -0.08756,0.02282 -0.08166,-10e-4 -0.109081,-0.0121 -0.06092,-0.02465 z"
               id="path31277"
               sodipodi:nodetypes="cssccssssssscssscsssssssssssssscssscssssssssssssscssccscsssscsssscssscsssssscssssssccsscsssssccsscsscsssscssccsccccscc" />
            <path
               style="fill:#8a98b9;stroke-width:0.0494937"
               d="m 59.721921,66.959454 c 0.03573,-0.0143 0.07842,-0.01254 0.09486,0.0039 0.01645,0.01645 -0.01279,0.02814 -0.06496,0.026 -0.05766,-0.0024 -0.06939,-0.0141 -0.0299,-0.0299 z m 1.237342,0 c 0.03573,-0.0143 0.07842,-0.01254 0.09486,0.0039 0.01645,0.01645 -0.01279,0.02814 -0.06496,0.026 -0.05766,-0.0024 -0.06939,-0.0141 -0.0299,-0.0299 z m 12.175446,0 c 0.03573,-0.0143 0.07842,-0.01254 0.09486,0.0039 0.01645,0.01645 -0.01279,0.02814 -0.06496,0.026 -0.05766,-0.0024 -0.06939,-0.0141 -0.0299,-0.0299 z m -1.091954,-0.345425 c 0.03403,-0.01373 0.08971,-0.01373 0.123734,0 0.03403,0.01373 0.0062,0.02496 -0.06187,0.02496 -0.06805,0 -0.09589,-0.01123 -0.06187,-0.02496 z m 0.346455,0 c 0.03403,-0.01373 0.08971,-0.01373 0.123735,0 0.03403,0.01373 0.0062,0.02496 -0.06187,0.02496 -0.06805,0 -0.09589,-0.01123 -0.06187,-0.02496 z M 68.154776,66.47358 c 0.001,-0.08167 0.0121,-0.109082 0.02465,-0.06093 0.01255,0.04816 0.01172,0.114973 -0.0018,0.148481 -0.01356,0.03351 -0.02382,-0.0059 -0.02282,-0.08755 z m 23.116383,-0.09899 c 5.49e-4,-0.108886 0.01069,-0.147602 0.02252,-0.08604 0.01184,0.06157 0.01139,0.150655 -10e-4,0.197975 -0.01239,0.04732 -0.02207,-0.0031 -0.02152,-0.111938 z m 1.331662,0.07424 c 0,-0.06805 0.01123,-0.09589 0.02496,-0.06187 0.01373,0.03403 0.01373,0.08971 0,0.123734 -0.01373,0.03403 -0.02496,0.0062 -0.02496,-0.06187 z M 60.808266,66.31484 c 0.06156,-0.01184 0.150654,-0.01139 0.197974,10e-4 0.04732,0.01239 -0.0031,0.02207 -0.111938,0.02153 -0.108886,-5.49e-4 -0.147602,-0.01069 -0.08604,-0.02252 z m 0.445443,0 c 0.06157,-0.01184 0.150654,-0.01139 0.197975,10e-4 0.04732,0.01239 -0.0031,0.02207 -0.111938,0.02153 -0.108886,-5.49e-4 -0.147603,-0.01069 -0.08604,-0.02252 z m 37.716703,0.0012 c 0.03573,-0.0143 0.07842,-0.01254 0.09486,0.0039 0.01645,0.01645 -0.01279,0.02814 -0.06496,0.026 -0.05766,-0.0024 -0.06938,-0.0141 -0.0299,-0.0299 z m -7.64976,-1.475745 c 5.5e-4,-0.108886 0.01069,-0.147603 0.02252,-0.08604 0.01184,0.06157 0.01139,0.150654 -10e-4,0.197975 -0.01239,0.04732 -0.02207,-0.0031 -0.02152,-0.111938 z M 94.73105,64.17213 c 0,-0.06805 0.01123,-0.09589 0.02496,-0.06187 0.01373,0.03403 0.01373,0.08971 0,0.123734 -0.01373,0.03403 -0.02496,0.0062 -0.02496,-0.06187 z M 81.175446,63.825667 c 0,-0.122496 0.0097,-0.172609 0.02145,-0.11136 0.0118,0.06125 0.0118,0.161473 0,0.222721 -0.0118,0.06125 -0.02145,0.01114 -0.02145,-0.111361 z m 15.848412,-2.128228 8.32e-4,-2.004494 1.435317,-0.0011 1.435317,-0.0011 -1.422389,0.01424 -1.422389,0.01424 -0.01376,1.991374 -0.01376,1.991374 8.31e-4,-2.004494 z m -5.653712,1.658039 c 5.49e-4,-0.108887 0.01068,-0.147603 0.02252,-0.08604 0.01184,0.06157 0.01139,0.150654 -0.001,0.197974 -0.01239,0.04732 -0.02207,-0.0031 -0.02153,-0.111937 z m -7.917991,-0.519684 c 0,-0.122497 0.0097,-0.172609 0.02145,-0.111361 0.0118,0.06125 0.0118,0.161473 0,0.222722 -0.0118,0.06125 -0.02145,0.01114 -0.02145,-0.111361 z M 68.333822,62.356541 c 0.03573,-0.0143 0.07842,-0.01254 0.09486,0.0039 0.01645,0.01645 -0.01279,0.02814 -0.06496,0.02599 -0.05766,-0.0024 -0.06939,-0.0141 -0.0299,-0.0299 z m 18.50342,-0.197161 c -0.01815,-0.01815 -0.03266,-0.05712 -0.03224,-0.08661 5.14e-4,-0.03629 0.01251,-0.03547 0.03712,0.0025 0.02,0.03088 0.08091,0.06727 0.13535,0.08087 0.09575,0.02392 0.09561,0.02492 -0.0041,0.03047 -0.05671,0.0032 -0.11796,-0.0091 -0.136108,-0.02726 z M 55.787548,59.668198 c 0,-0.17694 0.009,-0.249324 0.01996,-0.160854 0.01098,0.08847 0.01098,0.233239 0,0.321709 -0.01098,0.08847 -0.01996,0.01608 -0.01996,-0.160855 z m 27.910969,-0.234354 c 0.129302,-0.0102 0.340888,-0.0102 0.47019,0 0.129302,0.01019 0.02351,0.01854 -0.235095,0.01854 -0.258604,0 -0.364397,-0.0083 -0.235095,-0.01854 z m 13.324168,-0.124475 c -0.013,-0.03403 -0.01771,-1.487285 -0.01045,-3.229463 l 0.0132,-3.167596 0.012,3.203427 0.012,3.203427 0.754779,0.01505 0.754779,0.01505 -0.756332,0.01098 c -0.567763,0.0082 -0.762228,-0.0044 -0.779979,-0.05088 z m -12.531327,-0.2199 c 0.04816,-0.01255 0.114972,-0.01172 0.148481,0.0018 0.03351,0.01356 -0.0059,0.02383 -0.08756,0.02282 -0.08166,-10e-4 -0.109081,-0.0121 -0.06092,-0.02465 z m 2.627418,-1.970196 c -1.48e-4,-0.244993 0.0082,-0.351458 0.0186,-0.236588 0.01038,0.11487 0.0105,0.31532 2.97e-4,0.445443 -0.01025,0.130124 -0.01874,0.03614 -0.0189,-0.208855 z m -21.757669,0.04146 c 0.03403,-0.01373 0.08971,-0.01373 0.123735,0 0.03403,0.01373 0.0062,0.02496 -0.06187,0.02496 -0.06805,0 -0.09589,-0.01123 -0.06187,-0.02496 z m 0.174335,-0.462158 c 0,-0.122497 0.0097,-0.172609 0.02145,-0.111361 0.0118,0.06125 0.0118,0.161473 0,0.222722 -0.0118,0.06125 -0.02145,0.01114 -0.02145,-0.111361 z m 10.792783,-1.385823 c 0,-0.204161 0.0087,-0.287682 0.01941,-0.185601 0.01068,0.10208 0.01068,0.269122 0,0.371202 -0.01068,0.102081 -0.01941,0.01856 -0.01941,-0.185601 z m 4.847221,0.148481 c 0,-0.122497 0.0097,-0.172609 0.02145,-0.111361 0.0118,0.06125 0.0118,0.161473 0,0.222722 -0.0118,0.06125 -0.02145,0.01114 -0.02145,-0.111361 z m 9.002185,-0.296962 c 0,-0.06805 0.01123,-0.09589 0.02496,-0.06187 0.01373,0.03403 0.01373,0.08971 0,0.123734 -0.01373,0.03403 -0.02496,0.0062 -0.02496,-0.06187 z M 65.486624,54.842564 c 3.96e-4,-0.136108 0.01,-0.185914 0.02136,-0.11068 0.01138,0.07523 0.01107,0.186594 -6.73e-4,0.247468 -0.01175,0.06087 -0.02106,-6.83e-4 -0.02069,-0.136788 z m 29.240519,0.144357 c 0.0024,-0.05766 0.0141,-0.06939 0.0299,-0.0299 0.0143,0.03573 0.01254,0.07842 -0.0039,0.09486 -0.01645,0.01645 -0.02814,-0.01279 -0.026,-0.06496 z m -4.599006,-0.812522 c 0,-0.06805 0.01123,-0.09589 0.02496,-0.06187 0.01373,0.03403 0.01373,0.08971 0,0.123734 -0.01373,0.03403 -0.02496,0.0062 -0.02496,-0.06187 z m -0.04949,-0.94038 c 0,-0.06805 0.01123,-0.09589 0.02496,-0.06187 0.01373,0.03403 0.01373,0.08971 0,0.123734 -0.01373,0.03403 -0.02496,0.0062 -0.02496,-0.06187 z M 65.43713,53.011298 c 3.96e-4,-0.136108 0.01,-0.185914 0.02136,-0.11068 0.01138,0.07523 0.01107,0.186594 -6.73e-4,0.247468 -0.01175,0.06087 -0.02106,-6.83e-4 -0.02068,-0.136788 z m 10.830702,-0.281147 c -0.0041,-0.09585 -0.03664,-0.138617 -0.117102,-0.154114 l -0.11136,-0.02145 0.112914,-0.0067 c 0.122636,-0.0073 0.181141,0.08398 0.144481,0.225464 -0.01556,0.06004 -0.02508,0.04584 -0.02893,-0.04316 z m 16.336824,-0.01581 c 10e-4,-0.08167 0.0121,-0.109081 0.02465,-0.06093 0.01255,0.04816 0.01172,0.114973 -0.0018,0.148481 -0.01356,0.03351 -0.02383,-0.0059 -0.02282,-0.08755 z M 99.8344,52.605797 c 0.04816,-0.01255 0.114972,-0.01172 0.148481,0.0018 0.03351,0.01356 -0.0059,0.02383 -0.08756,0.02282 -0.08166,-0.001 -0.109081,-0.0121 -0.06092,-0.02465 z"
               id="path31275" />
            <path
               style="fill:#5372ae;stroke-width:0.0494937"
               d="m 77.017812,83.489855 c 0.04816,-0.01255 0.114972,-0.01172 0.148481,0.0018 0.03351,0.01356 -0.0059,0.02383 -0.08756,0.02282 -0.08167,-0.001 -0.109081,-0.0121 -0.06092,-0.02465 z m 2.597476,0.0015 c 0.03403,-0.01373 0.08971,-0.01373 0.123734,0 0.03403,0.01373 0.0062,0.02496 -0.06187,0.02496 -0.06805,0 -0.09589,-0.01123 -0.06187,-0.02496 z m 0.745499,-0.05052 c 0.03573,-0.0143 0.07842,-0.01254 0.09486,0.0039 0.01645,0.01645 -0.01279,0.02814 -0.06496,0.02599 -0.05766,-0.0024 -0.06938,-0.0141 -0.0299,-0.0299 z m -18.800984,-6.684958 -0.170564,-0.185601 0.185602,0.170564 c 0.10208,0.09381 0.185601,0.17733 0.185601,0.185601 0,0.03779 -0.04188,0.0022 -0.200639,-0.170564 z M 95.440894,76.49605 c 0.216494,-0.217772 0.404763,-0.395949 0.418374,-0.395949 0.01361,0 -0.152386,0.178177 -0.368881,0.395949 -0.216495,0.217773 -0.404763,0.39595 -0.418374,0.39595 -0.01361,0 0.152386,-0.178177 0.368881,-0.39595 z m -34.524509,-0.383576 -0.170564,-0.185601 0.185602,0.170564 c 0.10208,0.09381 0.185601,0.17733 0.185601,0.185601 0,0.03779 -0.04188,0.0022 -0.200639,-0.170564 z m -0.647067,-0.692911 c -0.06156,-0.0785 -0.05981,-0.08025 0.01869,-0.01869 0.08244,0.06466 0.108662,0.105301 0.06793,0.105301 -0.01028,0 -0.04925,-0.03898 -0.08661,-0.08661 z M 59.57344,66.959454 c 0.03573,-0.0143 0.07842,-0.01254 0.09486,0.0039 0.01645,0.01645 -0.01279,0.02814 -0.06496,0.026 -0.05766,-0.0024 -0.06938,-0.0141 -0.0299,-0.0299 z M 79.070858,66.36656 c 0.03403,-0.01373 0.08971,-0.01373 0.123734,0 0.03403,0.01373 0.0062,0.02496 -0.06187,0.02496 -0.06805,0 -0.09589,-0.01123 -0.06187,-0.02496 z M 61.800656,66.266542 c 0.03573,-0.0143 0.07842,-0.01254 0.09486,0.0039 0.01645,0.01645 -0.01279,0.02814 -0.06496,0.02599 -0.05766,-0.0024 -0.06939,-0.0141 -0.0299,-0.0299 z m 6.364826,-0.807583 c 0,-0.476377 0.0074,-0.671258 0.0165,-0.43307 0.0091,0.238189 0.0091,0.627951 0,0.86614 -0.0091,0.238188 -0.0165,0.04331 -0.0165,-0.43307 z m 17.986066,0.807583 c 0.03573,-0.0143 0.07842,-0.01254 0.09486,0.0039 0.01645,0.01645 -0.01279,0.02814 -0.06496,0.02599 -0.05766,-0.0024 -0.06938,-0.0141 -0.0299,-0.0299 z m 1.135261,0.001 c 0.03403,-0.01373 0.08971,-0.01373 0.123734,0 0.03403,0.01373 0.0062,0.02496 -0.06187,0.02496 -0.06805,0 -0.09589,-0.01123 -0.06187,-0.02496 z m -18.287916,-0.14979 c 0.04764,-0.01245 0.12559,-0.01245 0.173228,0 0.04764,0.01245 0.0087,0.02264 -0.08661,0.02264 -0.09528,0 -0.134252,-0.01019 -0.08661,-0.02264 z m 5.035982,-0.12984 c 0,-0.0085 0.07238,-0.0809 0.160855,-0.160854 l 0.160854,-0.145367 -0.145367,0.160854 c -0.135503,0.149939 -0.176342,0.183604 -0.176342,0.145367 z m 6.557914,-0.18249 c 0.04927,-0.05444 0.100718,-0.09899 0.114329,-0.09899 0.01361,0 -0.01556,0.04454 -0.06484,0.09899 -0.04927,0.05444 -0.100718,0.09899 -0.114329,0.09899 -0.01361,0 0.01557,-0.04454 0.06484,-0.09899 z m 10.727863,-0.569185 c 5.5e-4,-0.108886 0.01069,-0.147602 0.02252,-0.08604 0.01184,0.06157 0.01139,0.150654 -10e-4,0.197974 -0.01239,0.04732 -0.02207,-0.0031 -0.02152,-0.111938 z M 81.11638,64.4897 c 0.0024,-0.05766 0.0141,-0.06938 0.0299,-0.0299 0.0143,0.03573 0.01254,0.07842 -0.0039,0.09486 -0.01645,0.01645 -0.02814,-0.01279 -0.02599,-0.06496 z m 15.936966,-0.148473 c 0.0024,-0.05766 0.0141,-0.06938 0.0299,-0.0299 0.0143,0.03573 0.01254,0.07842 -0.0039,0.09486 -0.01645,0.01645 -0.02814,-0.01279 -0.02599,-0.06496 z m -2.31763,-0.441319 c 5.5e-4,-0.108886 0.01069,-0.147603 0.02252,-0.08604 0.01184,0.06157 0.01139,0.150654 -10e-4,0.197975 -0.01239,0.04732 -0.02207,-0.0031 -0.02152,-0.111938 z M 91.371145,63.72668 c 0,-0.122497 0.0097,-0.172609 0.02145,-0.111361 0.0118,0.06125 0.0118,0.161473 0,0.222722 -0.0118,0.06125 -0.02145,0.01114 -0.02145,-0.111361 z m -7.879068,-0.127858 c 0.0024,-0.05766 0.0141,-0.06939 0.0299,-0.0299 0.0143,0.03573 0.01254,0.07842 -0.0039,0.09486 -0.01645,0.01645 -0.02814,-0.01279 -0.02599,-0.06496 z m -2.306526,-3.955371 c 4e-6,-2.177722 0.0061,-3.061381 0.01352,-1.963687 0.0074,1.097694 0.0074,2.879467 -7e-6,3.959495 -0.0074,1.080028 -0.01352,0.181914 -0.01351,-1.995808 z m 2.275242,1.41057 c 0,-0.884699 0.0067,-1.246622 0.01491,-0.804272 0.0082,0.44235 0.0082,1.166195 0,1.608545 -0.0082,0.442349 -0.01491,0.08043 -0.01491,-0.804273 z m 19.135847,0.317583 c 0.002,-0.05766 0.0141,-0.06938 0.0299,-0.0299 0.0143,0.03573 0.0125,0.07842 -0.004,0.09486 -0.0165,0.01645 -0.0282,-0.01279 -0.026,-0.06496 z m 0.0534,-0.664044 c 0,-0.06805 0.0112,-0.09589 0.025,-0.06187 0.0137,0.03403 0.0137,0.08971 0,0.123735 -0.0137,0.03403 -0.025,0.0062 -0.025,-0.06187 z M 55.825107,60.5797 c 0.0024,-0.05766 0.0141,-0.06938 0.0299,-0.0299 0.0143,0.03573 0.01254,0.07842 -0.0039,0.09486 -0.01645,0.01645 -0.02814,-0.01279 -0.02599,-0.06496 z m 44.255823,-0.897465 c 0.0749,-0.01134 0.19735,-0.01134 0.27221,0 0.0749,0.01134 0.0136,0.02062 -0.13611,0.02062 -0.14971,0 -0.21096,-0.0093 -0.1361,-0.02062 z m 2.62612,-0.385246 c 3e-4,-0.16333 0.01,-0.224179 0.0205,-0.135222 0.011,0.08896 0.0108,0.222591 -5.1e-4,0.296962 -0.0113,0.07437 -0.0203,0.0016 -0.02,-0.16174 z M 87.121563,58.381362 c 0,-0.476376 0.0074,-0.671258 0.0165,-0.433069 0.0091,0.238188 0.0091,0.627951 0,0.866139 -0.0091,0.238188 -0.0165,0.04331 -0.0165,-0.43307 z m -3.660156,0.680539 c -0.01301,-0.03403 -0.0177,-1.420469 -0.01043,-3.080982 l 0.01323,-3.019115 0.01198,3.054443 0.01198,3.054443 0.482563,0.01618 0.482564,0.01618 -0.484117,0.01036 c -0.349626,0.0075 -0.490688,-0.0068 -0.507772,-0.05151 z m -27.6363,-0.31346 c 0.0024,-0.05766 0.0141,-0.06939 0.0299,-0.0299 0.0143,0.03573 0.01254,0.07842 -0.0039,0.09486 -0.01645,0.01645 -0.02814,-0.01279 -0.02599,-0.06496 z m 44.639393,-0.03931 c 0,-0.01028 0.039,-0.04925 0.0866,-0.08661 0.0785,-0.06156 0.0803,-0.05981 0.0187,0.01869 -0.0647,0.08244 -0.1053,0.108663 -0.1053,0.06793 z m 0.24747,-0.247468 c 0,-0.01028 0.039,-0.04925 0.0866,-0.08661 0.0785,-0.06156 0.0803,-0.05981 0.0187,0.01869 -0.0647,0.08244 -0.1053,0.108662 -0.1053,0.06793 z m -29.674576,-1.676472 -0.145367,-0.160854 0.160854,0.145367 c 0.149939,0.135503 0.183604,0.176342 0.145367,0.176342 -0.0085,0 -0.0809,-0.07239 -0.160854,-0.160855 z m -2.382499,-0.482563 c 0,-0.149719 0.0093,-0.210967 0.02062,-0.136108 0.01134,0.07486 0.01134,0.197356 0,0.272215 -0.01134,0.07486 -0.02062,0.01361 -0.02062,-0.136107 z m -3.118777,-0.07421 c 3.96e-4,-0.136107 0.01,-0.185913 0.02136,-0.11068 0.01138,0.07523 0.01107,0.186594 -6.74e-4,0.247468 -0.01175,0.06087 -0.02106,-6.83e-4 -0.02068,-0.136788 z m 24.691007,-0.371202 c 0,-0.06805 0.01123,-0.09589 0.02496,-0.06187 0.01373,0.03403 0.01373,0.08971 0,0.123735 -0.01373,0.03403 -0.02496,0.0062 -0.02496,-0.06187 z m 4.507593,-0.593925 c 0,-0.09528 0.01019,-0.134251 0.02263,-0.08661 0.01245,0.04764 0.01245,0.125591 0,0.173228 -0.01245,0.04764 -0.02263,0.0087 -0.02263,-0.08661 z m -24.457455,-0.02887 c 0.0024,-0.05766 0.0141,-0.06938 0.0299,-0.0299 0.0143,0.03573 0.01254,0.07842 -0.0039,0.09486 -0.01645,0.01645 -0.02814,-0.01279 -0.02599,-0.06496 z M 90.179465,54.89209 c 0.001,-0.08167 0.0121,-0.109081 0.02465,-0.06093 0.01255,0.04816 0.01172,0.114973 -0.0018,0.148482 -0.01356,0.03351 -0.02383,-0.0059 -0.02282,-0.08756 z M 76.328552,54.5951 c 1.98e-4,-0.217773 0.0089,-0.300705 0.01934,-0.184294 0.01046,0.116412 0.01031,0.294589 -3.47e-4,0.39595 -0.01064,0.101361 -0.01919,0.0061 -0.01901,-0.211656 z M 65.486624,54.397121 c 3.96e-4,-0.136108 0.01,-0.185914 0.02136,-0.11068 0.01138,0.07523 0.01107,0.186594 -6.73e-4,0.247468 -0.01175,0.06087 -0.02106,-6.83e-4 -0.02069,-0.136788 z m -10.162429,-0.03712 c 0.121359,-0.129303 0.227152,-0.235095 0.235095,-0.235095 0.03716,0 -0.0021,0.04444 -0.220653,0.249536 l -0.235095,0.220654 z m 34.805776,-0.408323 c 0.001,-0.08167 0.0121,-0.109081 0.02465,-0.06093 0.01255,0.04816 0.01172,0.114973 -0.0018,0.148482 -0.01356,0.03351 -0.02382,-0.0059 -0.02282,-0.08756 z m 10.476699,-0.210344 c -0.0616,-0.0785 -0.0598,-0.08025 0.0187,-0.01869 0.0476,0.03736 0.0866,0.07634 0.0866,0.08661 0,0.04073 -0.0406,0.01452 -0.1053,-0.06793 z M 80.561728,53.444367 c -0.06156,-0.0785 -0.05981,-0.08025 0.01869,-0.01869 0.04764,0.03736 0.08661,0.07634 0.08661,0.08661 0,0.04073 -0.04064,0.01452 -0.105301,-0.06793 z M 69.976393,53.264826 c 0,-0.01028 0.03898,-0.04925 0.08661,-0.08661 0.0785,-0.06156 0.08025,-0.05981 0.01869,0.01869 -0.06466,0.08244 -0.105301,0.108662 -0.105301,0.06793 z M 64.49591,53.100731 c 0.04816,-0.01255 0.114972,-0.01172 0.148481,0.0018 0.03351,0.01356 -0.0059,0.02382 -0.08756,0.02282 -0.08167,-0.001 -0.109081,-0.0121 -0.06093,-0.02465 z m 25.582733,-0.11419 c 0,-0.06805 0.01123,-0.09589 0.02496,-0.06187 0.01373,0.03403 0.01373,0.08971 0,0.123734 -0.01373,0.03403 -0.02496,0.0062 -0.02496,-0.06187 z m -3.633226,0.01672 c 0.03403,-0.01373 0.08971,-0.01373 0.123734,0 0.03403,0.01373 0.0062,0.02496 -0.06187,0.02496 -0.06805,0 -0.09589,-0.01123 -0.06187,-0.02496 z m -7.371466,-0.100018 c 0.03573,-0.0143 0.07842,-0.01254 0.09486,0.0039 0.01645,0.01645 -0.01279,0.02814 -0.06496,0.026 -0.05766,-0.0024 -0.06938,-0.0141 -0.0299,-0.0299 z m 13.70975,-0.04949 c 0.03573,-0.0143 0.07842,-0.01254 0.09486,0.0039 0.01645,0.01645 -0.01279,0.02814 -0.06496,0.026 -0.05766,-0.0024 -0.06938,-0.0141 -0.0299,-0.0299 z M 65.426882,52.696345 c -0.0034,-0.100744 -0.02415,-0.114008 -0.149775,-0.09557 -0.08023,0.01178 -0.134592,0.0032 -0.120813,-0.01913 0.01378,-0.0223 0.08012,-0.04054 0.147421,-0.04054 0.12623,0 0.197347,0.09728 0.152583,0.208715 -0.01403,0.03493 -0.02727,0.01086 -0.02942,-0.05348 z m -4.962556,-0.04057 c 0.03573,-0.0143 0.07842,-0.01254 0.09486,0.0039 0.01645,0.01645 -0.01279,0.02814 -0.06496,0.026 -0.05766,-0.0024 -0.06938,-0.0141 -0.0299,-0.0299 z m 0.643418,0 c 0.03573,-0.0143 0.07842,-0.01254 0.09486,0.0039 0.01645,0.01645 -0.01279,0.02814 -0.06496,0.026 -0.05766,-0.0024 -0.06939,-0.0141 -0.0299,-0.0299 z m 38.948436,-0.04846 c 0.034,-0.01373 0.0897,-0.01373 0.12373,0 0.034,0.01373 0.006,0.02497 -0.0619,0.02497 -0.0681,0 -0.0959,-0.01123 -0.0619,-0.02497 z m -3.75546,-9.705103 c -0.06156,-0.0785 -0.05981,-0.08025 0.01869,-0.01869 0.08244,0.06466 0.108663,0.105301 0.06793,0.105301 -0.01028,0 -0.04925,-0.03898 -0.08661,-0.08661 z m -35.827114,-0.03106 c 0,-0.01028 0.03898,-0.04925 0.08661,-0.08661 0.0785,-0.06156 0.08025,-0.05981 0.01869,0.01869 -0.06466,0.08244 -0.105301,0.108662 -0.105301,0.06793 z m 1.460064,-1.466124 c 0.04927,-0.05444 0.100718,-0.09899 0.114329,-0.09899 0.01361,0 -0.01556,0.04454 -0.06483,0.09899 -0.04927,0.05444 -0.100719,0.09899 -0.11433,0.09899 -0.01361,0 0.01557,-0.04454 0.06484,-0.09899 z m 32.832745,-0.03712 c -0.06156,-0.0785 -0.05981,-0.08025 0.01869,-0.01869 0.04764,0.03736 0.08661,0.07634 0.08661,0.08661 0,0.04073 -0.04064,0.01452 -0.105301,-0.06793 z M 80.954711,35.135015 c 0.03573,-0.0143 0.07842,-0.01254 0.09486,0.0039 0.01645,0.01645 -0.01279,0.02814 -0.06496,0.026 -0.05766,-0.0024 -0.06939,-0.0141 -0.0299,-0.0299 z m -4.206963,-0.04949 c 0.03573,-0.0143 0.07842,-0.01254 0.09486,0.0039 0.01645,0.01645 -0.01279,0.02814 -0.06496,0.02599 -0.05766,-0.0024 -0.06939,-0.0141 -0.0299,-0.0299 z m 3.662533,0 c 0.03573,-0.0143 0.07842,-0.01254 0.09486,0.0039 0.01645,0.01645 -0.01279,0.02814 -0.06496,0.02599 -0.05766,-0.0024 -0.06939,-0.0141 -0.0299,-0.0299 z m -2.774163,-0.05069 c 0.06157,-0.01184 0.150654,-0.01139 0.197975,9.99e-4 0.04732,0.01239 -0.0031,0.02207 -0.111938,0.02152 -0.108886,-5.49e-4 -0.147603,-0.01068 -0.08604,-0.02252 z m 1.805942,8.87e-4 c 0.04764,-0.01245 0.125591,-0.01245 0.173228,0 0.04764,0.01245 0.0087,0.02264 -0.08661,0.02264 -0.09528,0 -0.134251,-0.01019 -0.08661,-0.02264 z"
               id="path31271"
               sodipodi:nodetypes="ccsccssssssscssscssssssssscsssssssssscsssssssscsssssssscsssssssssssssscsssssssssssssssssssssssssssscsssssssscssssssscssccscssssssssssssscsssssssssccccccsssssssscsssscsssscsssscssscsssssssssssssssssscscccccsccscsssssccscscccscsssssssssssssccsccsssssssssssscssscssscsssssscssscscssccssssssssssssssssssssssscssscsssscssssssssssss" />
            <path
               style="fill:#4d4d4d;stroke-width:0.0494937"
               d="M 77.004496,83.494893 C 75.872389,83.400332 75.456358,83.357009 74.901015,83.27585 67.042991,82.127469 60.28506,77.24804 56.736758,70.160709 c -0.757622,-1.513264 -1.382446,-3.169454 -1.783145,-4.726497 -0.09807,-0.381101 -0.191134,-0.737084 -0.206797,-0.791074 -0.01566,-0.05399 0.144295,0.0855 0.355462,0.309968 0.921251,0.979296 2.015134,1.55718 3.595514,1.899464 0.446626,0.09673 0.662408,0.111543 1.65208,0.113401 1.182405,0.0022 1.463988,-0.03099 2.229987,-0.262988 l 0.299735,-0.09078 0.216572,0.56954 c 0.187332,0.492641 0.255466,0.611116 0.504633,0.877476 0.322717,0.344986 0.404717,0.386114 0.928963,0.465935 0.455952,0.06942 0.720346,0.183395 0.989469,0.426531 0.421495,0.380796 0.495317,0.656999 0.548058,2.050568 0.08828,2.332518 0.385045,3.223151 2.281299,6.846403 0.802179,1.532756 0.87635,1.617092 1.756362,1.997058 0.66482,0.287052 1.053814,0.411857 1.283677,0.411857 0.252544,0 0.477961,-0.187799 0.603395,-0.502699 0.228014,-0.572429 0.328597,-1.742244 0.20601,-2.395965 -0.07686,-0.409848 -0.07615,-0.998851 0.0015,-1.234058 0.147571,-0.447134 0.29346,-0.603468 0.796,-0.852988 0.385431,-0.191373 0.546525,-0.309512 0.89365,-0.655362 0.363321,-0.361985 0.459684,-0.495709 0.678516,-0.941588 0.14028,-0.285826 0.323256,-0.753541 0.406613,-1.039367 0.318155,-1.090938 0.666686,-1.524242 1.37444,-1.708744 0.219656,-0.05726 0.432037,-0.06679 0.931069,-0.0418 0.767034,0.03842 1.02461,-0.0233 1.371511,-0.328652 0.404763,-0.356287 0.659815,-0.981393 0.777289,-1.90505 0.08489,-0.667472 0.129977,-0.839724 0.378928,-1.447691 l 0.228001,-0.556804 h 5.628551 5.628551 l 0.03199,-0.952753 c 0.0176,-0.524014 0.04693,-1.450132 0.06519,-2.05804 l 0.03319,-1.105286 -0.139663,0.01642 c -0.133278,0.01567 -0.145956,0.04061 -0.277284,0.545283 -0.27327,1.050141 -0.565435,1.611732 -1.12864,2.169445 -0.597663,0.591836 -1.281561,0.874273 -2.405004,0.993224 -0.609805,0.06457 -1.402633,0.03225 -1.92592,-0.07851 -0.781006,-0.165304 -1.378314,-0.601481 -1.689347,-1.233625 -0.314934,-0.640072 -0.331823,-0.794813 -0.355576,-3.257904 l -0.02136,-2.214843 h 0.544057 c 0.991898,0 1.687293,0.223061 2.072183,0.664693 0.257933,0.295958 0.502033,0.84383 0.610784,1.370877 0.05264,0.255124 0.096,0.513974 0.09636,0.575222 5.3e-4,0.09059 0.02834,0.111361 0.149132,0.111361 h 0.148481 V 61.35908 c 0,-0.458308 0.01475,-1.705548 0.03279,-2.771646 l 0.03279,-1.93836 h -0.150472 c -0.150449,0 -0.150482,5e-5 -0.212663,0.408323 -0.130094,0.854147 -0.391191,1.378713 -0.83136,1.670269 -0.381375,0.252612 -0.638793,0.306122 -1.605608,0.333762 l -0.878513,0.02512 v -3.05595 -3.055949 l 1.719906,0.0269 c 1.827981,0.02859 2.203706,0.06783 2.758535,0.288094 l 0.296226,0.117599 0.08642,0.32026 c 0.150971,0.559459 0.441084,1.092212 0.804626,1.477586 0.182321,0.19327 0.430516,0.413487 0.551544,0.489372 0.121028,0.07588 0.232897,0.188085 0.248598,0.249333 0.02302,0.08979 0.06347,0.111425 0.208782,0.111687 0.442209,8.02e-4 0.761537,0.447009 1.212665,1.694503 0.488253,1.350154 0.870537,1.855524 1.491749,1.97205 0.396954,0.07446 0.988188,-0.1275 1.610584,-0.550162 l 0.306164,-0.207912 -0.02511,2.764934 c -0.0266,2.929324 -0.04441,3.163223 -0.275401,3.615993 -0.282431,0.553609 -1.00667,0.955461 -1.721982,0.955461 -0.151974,0 -0.166472,0.01293 -0.166472,0.148481 v 0.148481 h 2.625864 2.625864 l -0.175592,0.334082 c -0.313364,0.59621 -0.696499,0.994912 -1.43835,1.496791 -0.639382,0.432555 -0.915634,0.853966 -0.915634,1.396761 0,0.256312 0.15851,0.710946 0.370374,1.0623 0.09559,0.158527 0.17386,0.32535 0.17393,0.370717 4.9e-5,0.04537 -0.252753,0.847165 -0.561829,1.781773 -0.969473,2.931567 -1.647607,4.480422 -2.399907,5.481371 -0.110797,0.147419 -0.187836,0.290061 -0.171197,0.316983 0.01664,0.02692 0.0059,0.0339 -0.02385,0.01551 -0.02975,-0.01839 -0.07217,-0.0041 -0.09426,0.03183 -0.02209,0.0359 -0.340836,0.26673 -0.708327,0.512958 -3.339657,2.23766 -6.992555,3.563103 -11.037091,4.004775 -0.67269,0.07346 -3.324765,0.136467 -3.860508,0.09172 z M 94.52526,77.36825 c 0,-0.01028 0.03898,-0.04925 0.08661,-0.08661 0.0785,-0.06156 0.08025,-0.05981 0.01869,0.01869 -0.06466,0.08244 -0.105301,0.108662 -0.105301,0.06793 z M 60.094562,66.229963 c -1.012733,-0.191877 -1.898325,-0.66462 -2.561025,-1.367118 -1.069541,-1.133769 -1.629014,-2.723822 -1.698306,-4.826676 -0.04322,-1.311708 0.106658,-2.424586 0.465755,-3.458285 0.190749,-0.549091 0.616857,-1.417122 0.868125,-1.76847 l 0.161646,-0.226031 1.831267,1.352117 c 1.007196,0.743665 1.84797,1.353217 1.868386,1.35456 0.02042,0.0013 0.03712,-1.036435 0.03712,-2.306172 v -2.308613 l 0.316221,0.02953 c 1.099234,0.102648 2.225619,0.947602 2.988141,2.241543 0.08883,0.150741 0.139985,0.260771 0.113675,0.24451 -0.02631,-0.01626 -0.35512,0.124158 -0.730689,0.312041 -0.375569,0.187884 -0.846998,0.400624 -1.047619,0.472758 -0.77329,0.278037 -0.910148,0.580939 -0.580554,1.284921 0.214294,0.457715 0.276535,0.684977 0.276879,1.010986 3.96e-4,0.372999 -0.161447,0.804074 -0.495531,1.319883 -0.159574,0.246375 -0.414182,0.705969 -0.565796,1.021319 l -0.27566,0.573365 0.119349,0.466003 c 0.103182,0.402878 0.95122,2.923914 1.366977,4.063731 l 0.138841,0.380639 -0.3543,0.08438 c -0.473439,0.112759 -1.758388,0.140875 -2.242902,0.04908 z m 20.406605,-0.426812 c 0.104835,-0.150963 0.264996,-0.362549 0.355913,-0.47019 l 0.165305,-0.195711 -0.124018,0.247469 c -0.06821,0.136107 -0.22837,0.347693 -0.355913,0.470189 l -0.231895,0.222722 z m 17.121832,-0.06114 c -0.521122,-0.52112 -0.573561,-0.871551 -0.573561,-3.832926 v -2.191393 h 0.261932 0.261932 l 0.177848,0.309335 c 0.245065,0.426247 0.413866,0.87672 0.513575,1.370557 0.113574,0.562515 0.0771,1.404303 -0.08484,1.957894 -0.103515,0.353867 -0.114215,0.477483 -0.100675,1.163101 0.0194,0.982258 -0.02175,1.484811 -0.121588,1.484811 -0.04028,0 -0.190865,-0.11762 -0.334622,-0.261376 z m -16.539668,-2.8065 c -0.120792,-0.121191 -1.347826,-0.571697 -2.442949,-0.896932 -1.769554,-0.52553 -1.611229,-0.45956 -1.683577,-0.701499 -0.234157,-0.783044 -0.925696,-1.619273 -1.844874,-2.230872 -0.233238,-0.155192 -1.010866,-0.569426 -1.728062,-0.920522 -1.446808,-0.708268 -1.799838,-0.918425 -2.234656,-1.330276 -0.576475,-0.546025 -0.839498,-1.122396 -0.839498,-1.839621 0,-1.206845 0.797617,-2.157315 1.959758,-2.335322 1.288924,-0.197426 2.354368,0.473588 3.101876,1.953553 0.2179,0.431414 0.692767,1.765019 0.692767,1.945552 0,0.04424 0.05399,0.06951 0.148482,0.06951 h 0.148481 v -0.78387 c 0,-0.431129 -0.01471,-1.355423 -0.03268,-2.053988 l -0.03268,-1.270117 h -0.130603 c -0.103271,0 -0.143175,0.03477 -0.190678,0.166135 -0.157688,0.436079 -0.399198,0.446281 -1.382836,0.05842 -0.992361,-0.391304 -1.341468,-0.472021 -2.041532,-0.472021 -0.416868,0 -0.686472,0.02772 -0.966712,0.09939 -1.444877,0.369538 -2.517203,1.557705 -2.864934,3.174429 -0.02666,0.123957 -0.03813,0.128577 -0.214117,0.08624 -0.102271,-0.02461 -0.698207,-0.07692 -1.324302,-0.116263 -0.626095,-0.03934 -1.255283,-0.0967 -1.398196,-0.127459 l -0.259842,-0.05593 -0.0063,-0.478462 c -0.0035,-0.263154 -0.02018,-0.890497 -0.03712,-1.394095 l -0.0308,-0.915633 -0.13355,-0.01541 c -0.112393,-0.01297 -0.149533,0.01591 -0.234432,0.182331 -0.217109,0.425568 -0.445918,0.446711 -1.391104,0.128546 -0.885597,-0.298107 -1.531179,-0.459077 -2.126842,-0.530311 l -0.490936,-0.05871 -0.01404,-0.470155 -0.01404,-0.470155 -0.544431,-0.121632 c -0.299437,-0.0669 -0.5533,-0.128517 -0.564141,-0.136932 -0.0522,-0.04052 0.165468,-0.731656 0.348323,-1.105987 0.37528,-0.768255 1.141394,-1.386324 1.997591,-1.611573 0.172828,-0.04547 0.555575,-0.08388 0.915633,-0.09189 1.082004,-0.02408 1.630009,-0.281183 1.974756,-0.926496 0.304889,-0.570708 0.557573,-0.902304 1.08885,-1.428898 0.542974,-0.538188 1.017647,-0.890392 2.571341,-1.907915 0.472343,-0.30934 1.069082,-0.733303 1.326085,-0.942141 0.257004,-0.208836 0.558705,-0.411201 0.670446,-0.449699 0.111741,-0.0385 0.506113,-0.09118 0.876383,-0.117074 0.370269,-0.02589 0.740034,-0.05915 0.821698,-0.0739 0.289438,-0.05229 2.214552,-0.689763 2.233348,-0.739535 0.0312,-0.08261 -0.84929,-1.739743 -1.114053,-2.096711 -0.461333,-0.621998 -0.953388,-0.84885 -1.611362,-0.742886 -0.398923,0.06424 -0.713382,0.223699 -1.88363,0.95514 l -0.989873,0.618703 -0.12165,-0.258542 c -0.161358,-0.342931 -0.195271,-0.842283 -0.07449,-1.096811 0.181851,-0.383224 0.621237,-0.553951 1.916099,-0.744518 1.303783,-0.19188 2.349049,-0.500485 2.652288,-0.783063 0.06423,-0.05986 0.193637,-0.224176 0.287561,-0.36515 0.218851,-0.328484 0.508579,-0.589234 0.800845,-0.720748 0.192861,-0.08678 0.356061,-0.107568 0.985898,-0.12556 0.415128,-0.01186 0.754779,-0.0093 0.754779,0.0057 0,0.01497 -0.06919,0.233722 -0.153744,0.486113 -0.353908,1.056344 -0.131001,1.827667 0.734524,2.541678 0.691486,0.570438 1.228346,0.715389 1.562611,0.4219 0.0919,-0.08069 0.276419,-0.353232 0.410045,-0.605655 0.433221,-0.818362 0.76873,-1.046783 1.554539,-1.058362 0.725737,-0.01069 0.728291,-0.01118 0.910922,-0.171527 0.231712,-0.203446 0.297816,-0.523691 0.250721,-1.21464 -0.01931,-0.283325 -0.01638,-0.515137 0.0065,-0.515137 0.07935,0 6.825287,2.093723 6.868109,2.131642 0.02367,0.02096 -0.180558,0.60227 -0.453831,1.291807 -0.843622,2.128668 -0.916128,2.458233 -0.684912,3.113181 0.163906,0.464282 0.46704,0.885648 1.067007,1.483174 1.080396,1.075998 1.552988,1.282323 2.012689,0.8787 0.195508,-0.171658 0.332239,-0.41786 0.559856,-1.008091 0.21022,-0.545119 0.560401,-1.042425 0.867343,-1.231748 0.215501,-0.132922 0.287131,-0.150245 0.621238,-0.150245 0.336549,0 0.417771,0.02 0.746286,0.183778 0.20275,0.101079 0.604042,0.368345 0.891761,0.593924 0.287718,0.225581 0.830164,0.599459 1.205435,0.830842 0.397482,0.245078 0.809266,0.544804 0.986433,0.717996 0.287382,0.280934 1.147689,1.343315 1.201625,1.483868 0.06354,0.165571 -1.023607,0.234474 -1.443283,0.09148 -0.297221,-0.101273 -0.683344,-0.475788 -1.053001,-1.021344 -0.297716,-0.439383 -0.571298,-0.64378 -0.973428,-0.727261 -0.350043,-0.07267 -0.621335,-0.0087 -1.265723,0.298641 -0.376647,0.179618 -0.665856,0.277518 -1.039368,0.351834 -0.802607,0.159693 -1.117814,0.361569 -1.340892,0.858778 -0.09085,0.202489 -0.117297,0.377909 -0.145518,0.965127 -0.01897,0.394712 -0.05745,0.789033 -0.0855,0.876268 -0.140638,0.437288 -0.392951,0.793672 -0.956446,1.350948 -0.858597,0.849122 -1.037284,1.261176 -1.039602,2.397335 l -0.0014,0.671273 h -4.574188 -4.574188 v 0.141303 c 0,0.138688 0.0062,0.141821 0.334144,0.169316 0.865726,0.07258 1.434224,0.526486 1.687581,1.34742 0.06524,0.211373 0.07887,0.785278 0.0935,3.934747 0.01966,4.234502 0.01204,4.780559 -0.06563,4.702633 z m 15.966107,-3.762253 c 0,-0.08166 0.0096,-0.148481 0.02138,-0.148481 0.01176,0 0.06895,0.06682 0.127104,0.148481 l 0.105728,0.148481 h -0.127104 c -0.108232,0 -0.127105,-0.02205 -0.127105,-0.148481 z M 55.924728,53.73758 c 0.04122,-0.118508 0.07231,-0.14954 0.111044,-0.110811 0.03873,0.03873 0.0227,0.08482 -0.05725,0.164604 l -0.111044,0.110811 z"
               id="path31269" />
            <path
               style="fill:#aa0000;stroke-width:0.0494937"
               d="m 70.895259,80.158449 c -0.161552,-0.05159 -0.538439,-0.200728 -0.837529,-0.331421 -0.828537,-0.362045 -0.916532,-0.4639 -1.709142,-1.978373 -1.896254,-3.623252 -2.193023,-4.513885 -2.281299,-6.846403 -0.05274,-1.393569 -0.126563,-1.669772 -0.548058,-2.050568 -0.269123,-0.243136 -0.533517,-0.357109 -0.989469,-0.426531 -0.523952,-0.07978 -0.606293,-0.120999 -0.927454,-0.464322 -0.243083,-0.259856 -0.318177,-0.3885 -0.495032,-0.848042 -0.114664,-0.297944 -0.208479,-0.55584 -0.208479,-0.573101 0,-0.01726 0.16691,-0.11065 0.370912,-0.20753 0.991603,-0.47091 1.729806,-1.248547 2.102394,-2.214701 0.161303,-0.418272 0.318191,-1.035083 0.373463,-1.468277 l 0.03315,-0.259842 h -0.141545 c -0.1381,0 -0.144313,0.01163 -0.255288,0.47778 -0.239914,1.007771 -0.684644,1.852549 -1.232178,2.340558 -0.275878,0.245886 -0.861008,0.582894 -1.250876,0.720448 -0.200362,0.07069 -0.201981,0.07029 -0.254936,-0.06341 -0.211013,-0.532754 -1.362418,-3.938091 -1.458161,-4.312582 l -0.119138,-0.466003 0.27566,-0.573365 c 0.151614,-0.31535 0.406222,-0.774944 0.565796,-1.021319 0.334084,-0.515809 0.495925,-0.946884 0.495531,-1.319883 -3.47e-4,-0.326009 -0.06259,-0.553271 -0.276879,-1.010986 -0.329594,-0.703982 -0.192736,-1.006884 0.580554,-1.284921 0.200621,-0.07213 0.675222,-0.286464 1.054669,-0.47629 0.642895,-0.32162 0.694298,-0.339127 0.754404,-0.256927 0.05709,0.07808 0.312444,0.70806 0.66545,1.641739 0.106569,0.281868 0.129754,0.309336 0.261095,0.309336 h 0.14414 l -0.03308,-0.915633 c -0.01819,-0.503598 -0.01612,-0.915102 0.0046,-0.914452 0.02072,6.48e-4 0.126758,0.02262 0.235644,0.04883 0.108886,0.02621 0.72137,0.08148 1.361076,0.122831 0.639706,0.04135 1.240383,0.09253 1.334839,0.113746 l 0.171737,0.03857 0.0061,0.5922 c 0.009,0.883766 0.175348,1.421084 0.645022,2.083992 0.412679,0.582464 0.960197,0.972493 2.494749,1.777153 0.558041,0.292616 1.21507,0.655299 1.460064,0.805962 1.140669,0.701473 1.676005,1.627346 1.678912,2.903702 0.002,0.896233 -0.26386,1.527058 -0.880876,2.089801 -0.48636,0.443579 -1.06733,0.657099 -1.78791,0.657099 -0.504075,0 -0.820028,-0.07407 -1.306192,-0.306216 -0.71672,-0.342236 -1.373587,-1.077574 -1.841679,-2.06169 -0.196142,-0.412369 -0.638396,-1.667793 -0.638396,-1.812211 0,-0.05183 -0.04768,-0.07634 -0.148481,-0.07634 h -0.148481 v 0.635356 c 0,0.349445 -0.01473,1.307148 -0.03273,2.128228 l -0.03273,1.492873 h 0.155191 c 0.12218,0 0.171432,-0.0314 0.231541,-0.147643 0.04199,-0.0812 0.141682,-0.181429 0.221534,-0.222722 0.262568,-0.135779 0.524379,-0.09403 1.247518,0.198948 0.372197,0.150793 0.895593,0.33275 1.163102,0.404348 0.446635,0.119541 0.56727,0.130346 1.476254,0.132215 0.875557,0.0018 1.035601,-0.01068 1.385824,-0.108101 1.603114,-0.445924 2.714027,-1.619064 3.06927,-3.241197 0.06666,-0.304366 0.07893,-0.534049 0.05818,-1.088861 -0.01446,-0.38672 -0.04131,-0.761896 -0.05966,-0.833725 l -0.03337,-0.130597 1.378167,0.411836 c 1.296294,0.387371 2.36731,0.772121 2.634405,0.94638 l 0.117886,0.07691 -0.02671,0.873097 c -0.03011,0.984042 -0.07511,1.184825 -0.342655,1.528673 -0.100699,0.12942 -0.257591,0.335535 -0.348648,0.458031 -0.202319,0.272174 -0.576182,0.438278 -1.081891,0.480675 -0.335768,0.02815 -0.341371,0.03094 -0.341371,0.169922 v 0.141302 h 0.494937 c 0.272216,0 0.494937,0.0078 0.494937,0.01744 0,0.0096 -0.09963,0.255234 -0.221396,0.545875 -0.20676,0.493505 -0.322465,0.962177 -0.398563,1.614411 -0.120048,1.028928 -0.588645,1.797679 -1.22453,2.008887 -0.210132,0.06979 -0.361995,0.07851 -0.899326,0.05159 -1.39589,-0.06993 -1.882308,0.299403 -2.305509,1.750539 -0.08336,0.285826 -0.266333,0.753541 -0.406613,1.039367 -0.218832,0.445879 -0.315195,0.579603 -0.678516,0.941588 -0.347125,0.34585 -0.508219,0.463989 -0.89365,0.655362 -0.50254,0.24952 -0.64843,0.405854 -0.796,0.852988 -0.07763,0.235207 -0.07833,0.82421 -0.0015,1.234058 0.07695,0.410357 0.06827,1.107263 -0.02061,1.655319 -0.18278,1.127033 -0.48669,1.398247 -1.282165,1.144224 z m 21.939439,-1.553523 c 0.80166,-1.045929 1.467707,-2.549691 2.464936,-5.565188 0.309076,-0.934608 0.561898,-1.736406 0.561829,-1.781773 -5e-5,-0.04537 -0.07834,-0.21219 -0.17393,-0.370717 -0.62413,-1.035052 -0.459029,-1.779639 0.54526,-2.459061 0.741851,-0.501879 1.124986,-0.900581 1.43835,-1.496791 l 0.175592,-0.334082 h 0.665466 0.665466 v -0.141325 c 0,-0.137507 -0.0085,-0.142115 -0.314066,-0.170651 -0.408384,-0.03814 -0.857346,-0.194467 -0.825303,-0.287375 0.01305,-0.03785 0.02527,-0.558801 0.02714,-1.157675 0.0031,-0.980762 0.01467,-1.128169 0.116839,-1.48481 0.307139,-1.072125 0.128378,-2.424463 -0.443345,-3.353941 -0.07979,-0.129711 -0.145064,-0.24664 -0.145064,-0.259842 0,-0.0132 0.618052,-0.02439 1.37345,-0.02486 1.977832,-0.0012 2.655722,-0.09528 3.405332,-0.472433 l 0.33419,-0.168138 -0.0301,1.026 c -0.15413,5.247726 -2.08849,10.308594 -5.566875,14.564657 -1.180585,1.444531 -2.96054,3.144815 -4.29474,4.102504 l -0.236684,0.169892 z m 0.0078,-18.884217 c -0.598283,-0.120242 -0.986441,-0.641695 -1.466957,-1.970721 -0.359978,-0.995638 -0.626473,-1.458712 -0.93514,-1.62494 -0.197618,-0.106424 -0.193204,-0.07597 -0.271976,-1.876408 -0.02858,-0.653317 -0.0636,-1.282505 -0.0778,-1.398197 l -0.02584,-0.210348 h -0.937347 -0.937347 l -0.0066,-0.284589 c -0.03386,-1.45265 0.125835,-1.880289 1.03965,-2.784019 0.563495,-0.557276 0.815808,-0.91366 0.956446,-1.350948 0.02806,-0.08723 0.06653,-0.481556 0.0855,-0.876268 0.02822,-0.587218 0.05467,-0.762638 0.145518,-0.965127 0.223078,-0.497209 0.538285,-0.699085 1.340892,-0.858778 0.373512,-0.07432 0.662721,-0.172216 1.039368,-0.351834 0.644388,-0.3073 0.91568,-0.37131 1.265723,-0.298641 0.40213,0.08348 0.675712,0.287878 0.973428,0.727261 0.369657,0.545556 0.75578,0.920071 1.053001,1.021344 0.419676,0.142998 1.506818,0.07409 1.443283,-0.09148 -0.05394,-0.140553 -0.914243,-1.202934 -1.201625,-1.483868 -0.177167,-0.173192 -0.588951,-0.472918 -0.986433,-0.717996 -0.375271,-0.231383 -0.917717,-0.605261 -1.205435,-0.830842 -0.287719,-0.225579 -0.689011,-0.492845 -0.891761,-0.593924 -0.328515,-0.163777 -0.409737,-0.183778 -0.746286,-0.183778 -0.334107,0 -0.405737,0.01732 -0.621238,0.150245 -0.306942,0.189323 -0.657123,0.686629 -0.867343,1.231748 -0.227617,0.590231 -0.364348,0.836433 -0.559856,1.008091 -0.459701,0.403623 -0.932293,0.197298 -2.012689,-0.8787 -0.599967,-0.597526 -0.903101,-1.018892 -1.067007,-1.483174 -0.231216,-0.654948 -0.15871,-0.984513 0.684912,-3.113181 0.273273,-0.689537 0.477497,-1.27085 0.453831,-1.291807 -0.04282,-0.03792 -6.788758,-2.131642 -6.868109,-2.131642 -0.02289,0 -0.02582,0.231812 -0.0065,0.515137 0.04709,0.690949 -0.01901,1.011194 -0.250721,1.21464 -0.182631,0.160352 -0.185185,0.160833 -0.910922,0.171527 -0.785809,0.01158 -1.121318,0.24 -1.554539,1.058362 -0.133626,0.252423 -0.318147,0.524967 -0.410045,0.605655 -0.334265,0.293489 -0.871125,0.148538 -1.562611,-0.4219 -0.865525,-0.714011 -1.088432,-1.485334 -0.734524,-2.541678 0.08456,-0.252391 0.153744,-0.471142 0.153744,-0.486113 0,-0.01497 -0.339651,-0.01752 -0.754779,-0.0057 -0.629837,0.01799 -0.793037,0.03878 -0.985898,0.12556 -0.292266,0.131514 -0.581994,0.392264 -0.800845,0.720748 -0.09392,0.140974 -0.223326,0.305292 -0.287561,0.36515 -0.303239,0.282578 -1.348505,0.591183 -2.652288,0.783063 -1.294862,0.190567 -1.734248,0.361294 -1.916099,0.744518 -0.120782,0.254528 -0.08687,0.75388 0.07449,1.096811 l 0.12165,0.258542 0.989873,-0.618703 c 1.170248,-0.731441 1.484707,-0.890896 1.88363,-0.95514 0.657974,-0.105964 1.150029,0.120888 1.611362,0.742886 0.264763,0.356968 1.145251,2.014099 1.114053,2.096711 -0.0188,0.04977 -1.94391,0.687241 -2.233348,0.739535 -0.08166,0.01476 -0.451429,0.04801 -0.821698,0.0739 -0.37027,0.02589 -0.764642,0.07858 -0.876383,0.117074 -0.111741,0.0385 -0.413442,0.240863 -0.670446,0.449699 -0.257003,0.208838 -0.853742,0.632801 -1.326085,0.942141 -1.553694,1.017523 -2.028367,1.369727 -2.571341,1.907915 -0.531277,0.526594 -0.783961,0.85819 -1.08885,1.428898 -0.344747,0.645313 -0.892752,0.90242 -1.974756,0.926496 -0.360058,0.008 -0.742805,0.04642 -0.915633,0.09189 -0.856197,0.225249 -1.622311,0.843318 -1.997591,1.611573 -0.182855,0.374331 -0.400522,1.065464 -0.348323,1.105987 0.01084,0.0084 0.264704,0.07004 0.564141,0.136932 l 0.544431,0.121632 0.01408,0.473751 0.01408,0.473752 -0.781232,0.02874 c -0.828044,0.03046 -1.422183,0.138675 -2.216549,0.403714 -0.481605,0.160686 -1.289671,0.540683 -1.677958,0.789068 -0.216955,0.138784 -0.30197,0.169884 -0.351663,0.128643 -0.05043,-0.04186 -0.0737,-0.02813 -0.100961,0.05958 -0.01948,0.06268 -0.240263,0.314416 -0.490622,0.55941 -0.250359,0.244994 -0.572684,0.612484 -0.716278,0.816646 l -0.26108,0.371202 0.03404,-0.222721 c 0.08537,-0.558671 0.40129,-1.926248 0.625968,-2.709778 1.625419,-5.668385 5.232926,-10.513194 10.170161,-13.658321 5.565609,-3.545414 12.65511,-4.702635 19.028112,-3.105962 3.561146,0.892199 6.776937,2.541606 9.699734,4.975077 0.78311,0.652005 2.30388,2.170937 2.945768,2.942209 1.947782,2.340391 3.326661,4.721494 4.314321,7.450165 0.30896,0.853593 0.58892,1.765611 0.553,1.80153 -0.0116,0.01158 -0.14572,-0.02104 -0.29809,-0.07248 -0.5992,-0.202288 -0.7396,-0.208882 -4.906496,-0.230444 l -4.046108,-0.02094 v 0.122689 c 0,0.131484 0.02307,0.140673 0.517738,0.206207 0.594703,0.07879 1.07407,0.388073 1.32984,0.858007 0.259121,0.476092 0.285729,0.733765 0.315634,3.056709 l 0.02748,2.134354 -0.291073,0.197371 c -0.667859,0.452862 -1.233335,0.644718 -1.652148,0.560546 z m 4.341271,-0.562731 -0.134308,-0.176087 v -3.027865 -3.027865 l 1.076488,0.02088 c 1.004299,0.01948 1.100596,0.02949 1.435996,0.149206 1.146435,0.409217 1.845565,1.418286 1.967265,2.839384 0.13276,1.55028 -0.70773,2.899912 -2.033843,3.265892 -0.201508,0.05561 -0.58698,0.08891 -1.235111,0.106692 l -0.942179,0.02585 z m -37.99659,-3.203075 c -0.993362,-0.732936 -1.813064,-1.353468 -1.821561,-1.378959 -0.02481,-0.07442 0.564067,-0.72945 0.922651,-1.026305 0.181128,-0.149948 0.529773,-0.371905 0.774767,-0.493238 0.481198,-0.238313 0.892134,-0.341763 1.571425,-0.395598 l 0.433069,-0.03432 v 2.33301 c 0,1.283155 -0.0167,2.331887 -0.03712,2.330516 -0.02042,-0.0014 -0.84987,-0.602168 -1.843231,-1.335105 z m 30.438207,-0.313537 c -0.418667,-0.308041 -0.796225,-0.769743 -1.017486,-1.244245 -0.191075,-0.409767 -0.349411,-0.901564 -0.304669,-0.946306 0.04164,-0.04164 0.52265,0.321752 0.794017,0.59985 0.320883,0.328843 0.617049,0.880673 0.747602,1.392967 0.112872,0.442918 0.113277,0.442553 -0.219464,0.197734 z"
               id="path31267"
               sodipodi:nodetypes="sssssssssssscsssssscssssssssscsssssccssscsssssscsscsssssssssscsscssssscssssssssssscssscssssscccssscssscsccsscccssscccccssssssssssssssssssssssscssssssscsssssscsssssssssssssssscccssssssscsssssssssscsssscsccccccsssssccssssscscssssssss" />
          </g>
        </g>
      </g>
    </g>
    <text
       xml:space="preserve"
       style="font-style:normal;font-variant:normal;font-weight:normal;font-stretch:normal;font-size:27.5883px;line-height:1000;font-family:'TeX Gyre Chorus';-inkscape-font-specification:'TeX Gyre Chorus';letter-spacing:0px;word-spacing:0px;fill:#aa0000;fill-opacity:1;stroke:none;stroke-width:0.2;stroke-miterlimit:4;stroke-dasharray:none"
       x="3.0414817"
       y="32.552109"
       id="text1982"
       inkscape:export-filename="/home/pciturri/PycharmProjects/floatcsep/docs/_static/floatCSEP_Logo_CMYK.png"
       inkscape:export-xdpi="150.03999"
       inkscape:export-ydpi="150.03999"><tspan
         sodipodi:role="line"
         id="tspan1980"
         style="font-style:normal;font-variant:normal;font-weight:normal;font-stretch:normal;font-family:'TeX Gyre Chorus';-inkscape-font-specification:'TeX Gyre Chorus';fill:#aa0000;fill-opacity:1;stroke:none;stroke-width:0.2;stroke-miterlimit:4;stroke-dasharray:none"
         x="3.0414817"
         y="32.552109">float</tspan></text>
  </g>
</svg>
